<?xml version="1.0" encoding="UTF-8" standalone="no"?>
<svg
   xmlns="http://www.w3.org/2000/svg"
   viewBox="605 -120 260 260"
   version="1.1"
   height="350"
   width="350">
  <g
     id="g6"
     transform="translate(500,-117.71897)"
     style="fill:#29485a;fill-opacity:1;stroke:none">
    <path
       id="path4"
       d="m 189,21 -46,36 49,-8 z" />
  </g>
  <g
     id="g10"
     transform="translate(500,-117.71897)"
     style="fill:#2c4d60;fill-opacity:1;stroke:none">
    <path
       id="path8"
       d="m 144,207 41,-2 -33,-53 z" />
  </g>
  <g
     id="g14"
     transform="translate(500,-117.71897)"
     style="fill:#2f5165;fill-opacity:1;stroke:none">
    <path
       id="path12"
       d="m 144,207 8,-55 -32,9 z" />
  </g>
  <g
     id="g18"
     transform="translate(500,-117.71897)"
     style="fill:#213b4a;fill-opacity:1;stroke:none">
    <path
       id="path16"
       d="M 249,79 248,11 192,49 Z" />
  </g>
  <g
     id="g22"
     transform="translate(500,-117.71897)"
     style="fill:#2a495b;fill-opacity:1;stroke:none">
    <path
       id="path20"
       d="m 152,152 33,53 14,-71 z" />
  </g>
  <g
     id="g26"
     transform="translate(500,-117.71897)"
     style="fill:#294759;fill-opacity:1;stroke:none">
    <path
       id="path24"
       d="m 192,49 -49,8 56,77 z" />
  </g>
  <g
     id="g30"
     transform="translate(500,-117.71897)"
     style="fill:#1a2f3c;fill-opacity:1;stroke:none">
    <path
       id="path28"
       d="m 272,138 23,35 -7,-61 z" />
  </g>
  <g
     id="g34"
     transform="translate(500,-117.71897)"
     style="fill:#233e4e;fill-opacity:1;stroke:none">
    <path
       id="path32"
       d="m 249,79 -57,-30 7,85 z" />
  </g>
  <g
     id="g38"
     transform="translate(500,-117.71897)"
     style="fill:#233d4d;fill-opacity:1;stroke:none">
    <path
       id="path36"
       d="m 199,134 34,-4 16,-51 z" />
  </g>
  <g
     id="g42"
     transform="translate(500,-117.71897)"
     style="fill:#253e4f;fill-opacity:1;stroke:none">
    <path
       id="path40"
       d="m 195,240 62,-49 -72,14 z" />
  </g>
  <g
     id="g46"
     transform="translate(500,-117.71897)"
     style="fill:#2a485a;fill-opacity:1;stroke:none">
    <path
       id="path44"
       d="m 185,205 -41,2 51,33 z" />
  </g>
  <g
     id="g50"
     transform="translate(500,-117.71897)"
     style="fill:#152631;fill-opacity:1;stroke:none">
    <path
       id="path48"
       d="M 357,130 340,68 288,112 Z" />
  </g>
  <g
     id="g54"
     transform="translate(500,-117.71897)"
     style="fill:#1e3543;fill-opacity:1;stroke:none">
    <path
       id="path52"
       d="m 272,138 -39,-8 24,61 z" />
  </g>
  <g
     id="g58"
     transform="translate(500,-117.71897)"
     style="fill:#1c313f;fill-opacity:1;stroke:none">
    <path
       id="path56"
       d="m 257,191 38,-18 -23,-35 z" />
  </g>
  <g
     id="g62"
     transform="translate(500,-117.71897)"
     style="fill:#254152;fill-opacity:1;stroke:none">
    <path
       id="path60"
       d="m 189,21 3,28 56,-38 z" />
  </g>
  <g
     id="g66"
     transform="translate(500,-117.71897)"
     style="fill:#1c313e;fill-opacity:1;stroke:none">
    <path
       id="path64"
       d="m 304,28 -56,-17 1,68 z" />
  </g>
  <g
     id="g70"
     transform="translate(500,-117.71897)"
     style="fill:#213a49;fill-opacity:1;stroke:none">
    <path
       id="path68"
       d="m 257,191 -24,-61 -34,4 z" />
  </g>
  <g
     id="g74"
     transform="translate(500,-117.71897)"
     style="fill:#254050;fill-opacity:1;stroke:none">
    <path
       id="path72"
       d="m 199,134 -14,71 72,-14 z" />
  </g>
  <g
     id="g78"
     transform="translate(500,-117.71897)"
     style="fill:#315468;fill-opacity:1;stroke:none">
    <path
       id="path76"
       d="m 120,161 32,-9 -31,-50 z" />
  </g>
  <g
     id="g82"
     transform="translate(500,-117.71897)"
     style="fill:#2d4e61;fill-opacity:1;stroke:none">
    <path
       id="path80"
       d="m 121,102 31,50 47,-18 z" />
  </g>
  <g
     id="g86"
     transform="translate(500,-117.71897)"
     style="fill:#2c4c5e;fill-opacity:1;stroke:none">
    <path
       id="path84"
       d="M 199,134 143,57 121,102 Z" />
  </g>
  <g
     id="g90"
     transform="translate(500,-117.71897)"
     style="fill:#1f3140;fill-opacity:1;stroke:none">
    <path
       id="path88"
       d="m 254,241 44,-17 -41,-33 z" />
  </g>
  <g
     id="g94"
     transform="translate(500,-117.71897)"
     style="fill:#223646;fill-opacity:1;stroke:none">
    <path
       id="path92"
       d="m 257,191 -62,49 59,1 z" />
  </g>
  <g
     id="g98"
     transform="translate(500,-117.71897)"
     style="fill:#172935;fill-opacity:1;stroke:none">
    <path
       id="path96"
       d="m 298,224 41,-32 -44,-19 z" />
  </g>
  <g
     id="g102"
     transform="translate(500,-117.71897)"
     style="fill:#1a2e3b;fill-opacity:1;stroke:none">
    <path
       id="path100"
       d="m 295,173 -38,18 41,33 z" />
  </g>
  <g
     id="g106"
     transform="translate(500,-117.71897)"
     style="fill:#152632;fill-opacity:1;stroke:none">
    <path
       id="path104"
       d="m 295,173 44,19 18,-62 z" />
  </g>
  <g
     id="g110"
     transform="translate(500,-117.71897)"
     style="fill:#162733;fill-opacity:1;stroke:none">
    <path
       id="path108"
       d="m 357,130 -69,-18 7,61 z" />
  </g>
  <g
     id="g114"
     transform="translate(500,-117.71897)"
     style="fill:#172935;fill-opacity:1;stroke:none">
    <path
       id="path112"
       d="M 288,112 340,68 304,28 Z" />
  </g>
  <g
     id="g118"
     transform="translate(500,-117.71897)"
     style="fill:#1a2e3b;fill-opacity:1;stroke:none">
    <path
       id="path116"
       d="m 304,28 -55,51 39,33 z" />
  </g>
  <g
     id="g122"
     transform="translate(500,-117.71897)"
     style="fill:#1d3442;fill-opacity:1;stroke:none">
    <path
       id="path120"
       d="M 288,112 249,79 233,130 Z" />
  </g>
  <g
     id="g126"
     transform="translate(500,-117.71897)"
     style="fill:#1e3543;fill-opacity:1;stroke:none">
    <path
       id="path124"
       d="m 233,130 39,8 16,-26 z" />
  </g>
</svg>
