<?xml version="1.0" encoding="UTF-8" standalone="no"?>
<svg
   xmlns="http://www.w3.org/2000/svg"
   viewBox="605 -120 260 260"
   version="1.1"
   height="350"
   width="350">
  <g
     id="g6"
     transform="translate(500,-117.71897)"
     style="fill:#213a49;fill-opacity:1;stroke:none">
    <path
       id="path4"
       d="m 207,91 4,4 46,14 34,-40 -23,-25 -37,1 z" />
  </g>
  <g
     id="g10"
     transform="translate(500,-117.71897)"
     style="fill:#192c39;fill-opacity:1;stroke:none">
    <path
       id="path8"
       d="m 268,166 16,33 27,-2 18,-41 -11,-17 -13,2 z" />
  </g>
  <g
     id="g14"
     transform="translate(500,-117.71897)"
     style="fill:#294758;fill-opacity:1;stroke:none">
    <path
       id="path12"
       d="m 166,229 58,-16 -7,-39 -32,-6 -22,14 z" />
  </g>
  <g
     id="g18"
     transform="translate(500,-117.71897)"
     style="fill:#2b4b5e;fill-opacity:1;stroke:none">
    <path
       id="path16"
       d="m 185,168 -22,-57 -34,21 13,47 21,3 z" />
  </g>
  <g
     id="g22"
     transform="translate(500,-117.71897)"
     style="fill:#264253;fill-opacity:1;stroke:none">
    <path
       id="path20"
       d="m 217,174 4,-4 -10,-75 -4,-4 -33,2 -5,4 -6,14 22,57 z" />
  </g>
  <g
     id="g26"
     transform="translate(500,-117.71897)"
     style="fill:#1d3341;fill-opacity:1;stroke:none">
    <path
       id="path24"
       d="m 257,111 -10,49 21,6 37,-25 z" />
  </g>
  <g
     id="g30"
     transform="translate(500,-117.71897)"
     style="fill:#274455;fill-opacity:1;stroke:none">
    <path
       id="path28"
       d="m 174,93 33,-2 24,-46 -10,-14 -56,7 z" />
  </g>
  <g
     id="g34"
     transform="translate(500,-117.71897)"
     style="fill:#213a49;fill-opacity:1;stroke:none">
    <path
       id="path32"
       d="m 225,214 45,3 14,-18 -16,-33 -21,-6 -26,10 -4,4 7,39 z" />
  </g>
  <g
     id="g38"
     transform="translate(500,-117.71897)"
     style="fill:#182b37;fill-opacity:1;stroke:none">
    <path
       id="path36"
       d="m 318,139 9,-34 -29,-35 -7,-1 -34,40 v 2 l 48,30 z" />
  </g>
  <g
     id="g42"
     transform="translate(500,-117.71897)"
     style="fill:#213a49;fill-opacity:1;stroke:none">
    <path
       id="path40"
       d="m 221,170 26,-10 10,-49 v -2 L 211,95 Z" />
  </g>
</svg>
